<?xml version="1.0" encoding="UTF-8"?>
<svg width="607px" height="115px" viewBox="0 0 607 115" version="1.1" xmlns="http://www.w3.org/2000/svg" xmlns:xlink="http://www.w3.org/1999/xlink">
    <!-- Generator: Sketch 52.6 (67491) - http://www.bohemiancoding.com/sketch -->
    <title>Artboard@2x</title>
    <desc>Created with Sketch.</desc>
    <g id="Artboard" stroke="none" stroke-width="1" fill="none" fill-rule="evenodd">
        <g id="Source-SVG-fixed">
            <path d="M20.6,0.6 L606.7,0.6 L586.6,114.3 L0.6,114.3 L20.6,0.6 Z M581.2,108.9 L599.5,6 L363.5,6 L345.6,108.9 L581.2,108.9 Z M53,43.7 L46.8,78.6 L59.6,78.6 L65.8,43.7 L79.1,43.7 L81,33.1 L41.7,33.1 L39.8,43.7 L53,43.7 Z M120.7,78.6 L120.8,77.7 L111.7,62.4 C120.2,59.8 124,54.3 124,46.4 C124,39.3 119.1,33.1 108.8,33.1 L86.6,33.1 L78.6,78.6 L91.5,78.6 L94.1,63.9 L99.1,63.9 L107.1,78.6 L120.7,78.6 Z M97.7,43.4 L107.1,43.4 C114.3,43.4 111.9,53.8 105.3,54.3 L95.8,54.3 L97.7,43.4 Z M159.9,71.1 L161.6,78.6 L175,78.6 L162.7,33.1 L149.7,33.1 L121.3,78.6 L135.3,78.6 L139.6,71.1 L159.9,71.1 Z M154.2,46.2 L157.4,60.4 L145.8,60.4 L154.2,46.2 Z M178.6,78.6 L191.4,78.6 L199.4,33.1 L186.6,33.1 L178.6,78.6 Z M221.5,33.1 L208.8,33.1 L200.8,78.6 L235.4,78.6 L237.3,67.7 L215.5,67.7 L221.5,33.1 Z M277.2,78.6 L279,67.8 L255.3,67.8 L256.5,60.9 L277.2,60.9 L279.1,50.4 L258.4,50.4 L259.5,43.9 L281.5,43.9 L283.4,33.1 L248.8,33.1 L240.8,78.6 L277.2,78.6 Z M326.2,78.6 L326.3,77.7 L317.2,62.4 C325.7,59.8 329.5,54.3 329.5,46.4 C329.5,39.3 324.6,33.1 314.3,33.1 L292.1,33.1 L284.1,78.6 L297,78.6 L299.6,63.9 L304.6,63.9 L312.6,78.6 L326.2,78.6 Z M303.2,43.4 L312.6,43.4 C319.8,43.4 317.4,53.8 310.8,54.3 L301.3,54.3 L303.2,43.4 Z" id="Combined-Shape" fill="#FFFFFF" fill-rule="nonzero"></path>
            <g id="Group" transform="translate(39.000000, 33.000000)"></g>
            <g id="Group" transform="translate(383.000000, 32.000000)" fill="#FFFFFF">
                <polygon id="Path" points="23.5 46.8 11 46.8 0.2 1.1 14.4 1.1 17.2 14.7 19.9 31.5 28.7 14.7 36.3 1.1 50.5 1.1"></polygon>
                <path d="M68.4,47.7 C55.3,47.7 46.7,40.6 46.5,28.1 C46.1,10.9 59,0 75.9,0 C89,0 97.6,7.2 97.8,19.6 C98.1,37.1 85.4,47.7 68.4,47.7 Z M74.6,11 C66.3,11 59.6,17.5 59.5,26.1 C59.4,32.4 63.3,36.8 69.6,36.8 C78.2,36.8 84.7,30.2 84.8,21.5 C84.9,15.1 81.2,11 74.6,11 Z" id="Shape" fill-rule="nonzero"></path>
                <polygon id="Path" points="115 11.7 101.7 11.7 103.6 1.1 143 1.1 141.1 11.7 127.8 11.7 121.6 46.6 108.8 46.6"></polygon>
                <polygon id="Path" points="177 46.6 140.6 46.6 148.6 1.1 183.2 1.1 181.3 11.9 159.3 11.9 158.2 18.4 178.9 18.4 177 28.9 156.3 28.9 155.1 35.8 178.8 35.8"></polygon>
            </g>
        </g>
    </g>
</svg>